<svg width="36" height="25" viewBox="0 0 36 25" fill="none" xmlns="http://www.w3.org/2000/svg">
<path d="M8.70271 9V3.05405C8.70271 1.91963 7.78308 1 6.64866 1V1C5.51424 1 4.5946 1.91963 4.5946 3.05405V14" stroke="#297FFF" stroke-width="2" stroke-linecap="round" stroke-linejoin="round"/>
<path d="M8.7027 10.5V9.05405C8.7027 7.91963 9.62233 7 10.7568 7V7C11.8912 7 12.8108 7.91963 12.8108 9.05405V11" stroke="#297FFF" stroke-width="2" stroke-linecap="round" stroke-linejoin="round"/>
<path d="M12.8108 10.5V10.0541C12.8108 8.91963 13.7305 8 14.8649 8V8C15.9993 8 16.9189 8.91963 16.9189 10.0541V12.5" stroke="#297FFF" stroke-width="2" stroke-linecap="round" stroke-linejoin="round"/>
<path d="M16.9189 12.5V11.8107C16.9189 10.8614 17.7692 10.138 18.7062 10.29V10.29C19.452 10.4111 20 11.0551 20 11.8107V18.0335C20 18.6619 19.8027 19.2745 19.4359 19.7847L17.3032 22.7512C16.7396 23.5352 15.833 24 14.8674 24H6.64616C5.68055 24 4.77396 23.5352 4.21031 22.7512L1.99622 19.6714C1.68031 19.232 1.48915 18.7153 1.443 18.1761L1.18669 15.1813C1.07546 13.8817 1.8167 12.6592 3.02044 12.1569L4.59459 11.5" stroke="#297FFF" stroke-width="2" stroke-linejoin="round"/>
<path d="M30 18L35 13L30 8" stroke="#297FFF" stroke-width="2" stroke-linecap="round" stroke-linejoin="round"/>
</svg>
