<svg width="46" height="41" viewBox="0 0 46 41" fill="none" xmlns="http://www.w3.org/2000/svg">
<path fill-rule="evenodd" clip-rule="evenodd" d="M40.3672 27.9971L29.1475 8.83024C27.858 6.62727 26.967 5.10966 26.201 4.03904C25.4293 2.96042 24.9874 2.63794 24.7205 2.51987C23.8573 2.13804 22.8731 2.13804 22.01 2.51987C21.7431 2.63794 21.3012 2.96042 20.5295 4.03904C19.7634 5.10966 18.8725 6.62726 17.5829 8.83023L6.36327 27.9971C5.05069 30.2395 4.14644 31.7887 3.5779 33.0023C3.00402 34.2273 2.94031 34.7779 2.9696 35.0682C3.06516 36.0156 3.5594 36.8776 4.32876 37.4387C4.56452 37.6106 5.07181 37.8338 6.41894 37.9574C7.75353 38.0798 9.54734 38.082 12.1456 38.082H34.5849C37.1831 38.082 38.9769 38.0798 40.3115 37.9574C41.6587 37.8338 42.1659 37.6106 42.4017 37.4387C43.1711 36.8776 43.6653 36.0156 43.7609 35.0682C43.7901 34.7779 43.7264 34.2273 43.1526 33.0023C42.584 31.7887 41.6798 30.2395 40.3672 27.9971ZM21.1065 0.477409C19.4575 1.20684 18.1902 3.37189 15.6555 7.70198L4.43583 26.8689C1.85519 31.2775 0.564873 33.4818 0.747494 35.2923C0.906767 36.8714 1.73049 38.308 3.01277 39.2432C4.48303 40.3154 7.03722 40.3154 12.1456 40.3154H34.5849C39.6932 40.3154 42.2474 40.3154 43.7177 39.2432C45 38.308 45.8237 36.8714 45.983 35.2923C46.1656 33.4818 44.8753 31.2775 42.2946 26.8689L31.075 7.70199C28.5403 3.37189 27.2729 1.20684 25.624 0.477409C24.1854 -0.158973 22.5451 -0.158973 21.1065 0.477409Z" fill="#297FFF"/>
<path d="M20.0548 13.3554C20.0118 12.7756 20.4707 12.2815 21.0521 12.2815H25.6783C26.2597 12.2815 26.7185 12.7756 26.6756 13.3554L25.9793 22.7556C25.9406 23.2778 25.5056 23.6818 24.982 23.6818H21.7484C21.2248 23.6818 20.7898 23.2778 20.7511 22.7556L20.0548 13.3554Z" stroke="#297FFF" stroke-width="2"/>
<rect x="21.0151" y="27.9152" width="4.70014" height="4.70014" rx="1" stroke="#297FFF" stroke-width="2"/>
</svg>
