<svg width="230" height="124" viewBox="0 0 230 124" fill="none" xmlns="http://www.w3.org/2000/svg">
<path d="M31.5637 2.61365C33.2545 1.24608 35.3633 0.5 37.5379 0.5H220C225.247 0.5 229.5 4.75329 229.5 10V45C229.5 50.2467 225.247 54.5 220 54.5H37.5379C35.3633 54.5 33.2545 53.7539 31.5637 52.3864L5.12087 30.9988C2.89409 29.1977 2.89408 25.8023 5.12087 24.0012L31.5637 2.61365Z" stroke="#297FFF"/>
<path d="M5.12087 93.0012L31.5637 71.6136C33.2545 70.2461 35.3633 69.5 37.5379 69.5H220C225.247 69.5 229.5 73.7533 229.5 79V114C229.5 119.247 225.247 123.5 220 123.5H37.5379C35.3633 123.5 33.2545 122.754 31.5637 121.386L5.12087 99.9988C2.89409 98.1977 2.89408 94.8023 5.12087 93.0012Z" fill="#297FFF" stroke="#297FFF"/>
</svg>
