<svg width="45" height="45" viewBox="0 0 45 45" fill="none" xmlns="http://www.w3.org/2000/svg">
<path fill-rule="evenodd" clip-rule="evenodd" d="M15.4036 7.096C17.1098 7.01745 17.6538 7 22 7C26.3462 7 26.8902 7.01891 28.5949 7.096C30.2996 7.17309 31.4633 7.44509 32.4815 7.83927C33.5476 8.24218 34.5149 8.872 35.3149 9.68655C36.1295 10.4851 36.7578 11.4509 37.1593 12.5185C37.5549 13.5367 37.8255 14.7004 37.904 16.4022C37.9825 18.1113 38 18.6553 38 23C38 27.3462 37.9811 27.8902 37.904 29.5964C37.8269 31.2982 37.5549 32.4618 37.1593 33.48C36.7578 34.5478 36.1284 35.5152 35.3149 36.3149C34.5149 37.1295 33.5476 37.7578 32.4815 38.1593C31.4633 38.5549 30.2996 38.8255 28.5978 38.904C26.8902 38.9825 26.3462 39 22 39C17.6538 39 17.1098 38.9811 15.4036 38.904C13.7018 38.8269 12.5382 38.5549 11.52 38.1593C10.4522 37.7578 9.48483 37.1284 8.68509 36.3149C7.8711 35.5159 7.24119 34.5489 6.83927 33.4815C6.44509 32.4633 6.17455 31.2996 6.096 29.5978C6.01745 27.8887 6 27.3447 6 23C6 18.6538 6.01891 18.1098 6.096 16.4051C6.17309 14.7004 6.44509 13.5367 6.83927 12.5185C7.24178 11.451 7.87217 10.4841 8.68655 9.68509C9.48515 8.87127 10.4516 8.24137 11.5185 7.83927C12.5367 7.44509 13.7004 7.17455 15.4022 7.096H15.4036ZM28.4655 9.976C26.7782 9.89891 26.272 9.88291 22 9.88291C17.728 9.88291 17.2218 9.89891 15.5345 9.976C13.9738 10.0473 13.1273 10.3076 12.5629 10.5273C11.8167 10.8182 11.2829 11.1629 10.7229 11.7229C10.1921 12.2393 9.78354 12.868 9.52727 13.5629C9.30764 14.1273 9.04727 14.9738 8.976 16.5345C8.89891 18.2218 8.88291 18.728 8.88291 23C8.88291 27.272 8.89891 27.7782 8.976 29.4655C9.04727 31.0262 9.30764 31.8727 9.52727 32.4371C9.78327 33.1309 10.192 33.7607 10.7229 34.2771C11.2393 34.808 11.8691 35.2167 12.5629 35.4727C13.1273 35.6924 13.9738 35.9527 15.5345 36.024C17.2218 36.1011 17.7265 36.1171 22 36.1171C26.2735 36.1171 26.7782 36.1011 28.4655 36.024C30.0262 35.9527 30.8727 35.6924 31.4371 35.4727C32.1833 35.1818 32.7171 34.8371 33.2771 34.2771C33.808 33.7607 34.2167 33.1309 34.4727 32.4371C34.6924 31.8727 34.9527 31.0262 35.024 29.4655C35.1011 27.7782 35.1171 27.272 35.1171 23C35.1171 18.728 35.1011 18.2218 35.024 16.5345C34.9527 14.9738 34.6924 14.1273 34.4727 13.5629C34.1818 12.8167 33.8371 12.2829 33.2771 11.7229C32.7606 11.1921 32.1319 10.7836 31.4371 10.5273C30.8727 10.3076 30.0262 10.0473 28.4655 9.976ZM19.9564 27.9324C21.0977 28.4075 22.3686 28.4716 23.5519 28.1138C24.7352 27.756 25.7577 26.9984 26.4445 25.9705C27.1314 24.9426 27.4401 23.7082 27.3179 22.478C27.1957 21.2478 26.6502 20.0981 25.7745 19.2255C25.2163 18.6676 24.5414 18.2405 23.7983 17.9748C23.0552 17.7091 22.2624 17.6114 21.4771 17.6889C20.6917 17.7664 19.9333 18.017 19.2564 18.4227C18.5796 18.8285 18.0011 19.3793 17.5626 20.0354C17.1242 20.6916 16.8366 21.4368 16.7208 22.2174C16.6049 22.998 16.6635 23.7946 16.8924 24.5498C17.1214 25.3051 17.5149 26.0002 18.0447 26.5851C18.5745 27.1699 19.2274 27.6301 19.9564 27.9324ZM16.1847 17.1847C16.9484 16.4211 17.855 15.8153 18.8528 15.402C19.8506 14.9887 20.92 14.776 22 14.776C23.08 14.776 24.1494 14.9887 25.1472 15.402C26.145 15.8153 27.0516 16.4211 27.8153 17.1847C28.5789 17.9484 29.1847 18.855 29.598 19.8528C30.0113 20.8506 30.224 21.92 30.224 23C30.224 24.08 30.0113 25.1494 29.598 26.1472C29.1847 27.145 28.5789 28.0516 27.8153 28.8153C26.273 30.3576 24.1812 31.224 22 31.224C19.8188 31.224 17.727 30.3576 16.1847 28.8153C14.6424 27.273 13.776 25.1812 13.776 23C13.776 20.8188 14.6424 18.727 16.1847 17.1847ZM32.048 16.0007C32.2372 15.8222 32.3887 15.6075 32.4935 15.3694C32.5983 15.1313 32.6543 14.8746 32.6581 14.6144C32.6619 14.3543 32.6134 14.0961 32.5156 13.855C32.4178 13.6139 32.2726 13.3949 32.0887 13.211C31.9047 13.027 31.6857 12.8818 31.4446 12.784C31.2036 12.6862 30.9453 12.6378 30.6852 12.6416C30.4251 12.6454 30.1683 12.7013 29.9302 12.8061C29.6921 12.9109 29.4774 13.0624 29.2989 13.2516C28.9517 13.6197 28.7616 14.1085 28.769 14.6144C28.7764 15.1203 28.9806 15.6035 29.3384 15.9612C29.6962 16.319 30.1793 16.5232 30.6852 16.5306C31.1911 16.538 31.68 16.3479 32.048 16.0007Z" fill="white"/>
</svg>
