<svg width="98" height="42" viewBox="0 0 98 42" fill="none" xmlns="http://www.w3.org/2000/svg">
<path d="M35 21.4737C35 21.4737 30.3333 30 21 30C11.6667 30 7 21.4737 7 21.4737C7 21.4737 11.6667 12 21 12C30.3333 12 35 21.4737 35 21.4737Z" stroke="#297FFF" stroke-width="2" stroke-linejoin="round"/>
<circle cx="21" cy="21" r="5" stroke="#297FFF" stroke-width="2" stroke-linejoin="round"/>
<path d="M69.7985 13.7984C69.4762 13.4762 68.9729 13.4154 68.5967 13.6726C67.5217 14.4073 66.5853 15.2255 65.7877 16.035C64.5643 17.2768 63.6492 18.5157 63.0392 19.4444C62.7336 19.9097 62.5031 20.2994 62.3474 20.576C62.2695 20.7144 62.2102 20.8247 62.1695 20.9022C62.1491 20.9409 62.1334 20.9715 62.1223 20.9933L62.1092 21.0193L62.1052 21.0273L62.1039 21.03L62.1034 21.031C62.1034 21.031 62.103 21.0318 63 21.4737L62.1034 21.031C61.9594 21.3232 61.9664 21.668 62.1228 21.9538L63 21.4737C62.1228 21.9538 62.1228 21.9538 62.1228 21.9538L62.1238 21.9556L62.1253 21.9583L62.1295 21.9658L62.1431 21.99C62.1544 22.0102 62.1705 22.0382 62.1911 22.0736C62.2324 22.1444 62.2924 22.2447 62.371 22.3704C62.5281 22.6215 62.7601 22.9745 63.0673 23.3954C63.6806 24.2358 64.5991 25.3547 65.8256 26.4751C68.277 28.7146 72.0066 31 77 31C80.1249 31 82.7548 30.105 84.8863 28.8863L83.4134 27.4134C81.6255 28.3497 79.4886 29 77 29C72.6601 29 69.3898 27.0222 67.1745 24.9985C66.0676 23.9874 65.2362 22.9747 64.6828 22.2164C64.4604 21.9117 64.2839 21.6493 64.1533 21.4463C64.2871 21.2134 64.4731 20.9045 64.7109 20.5424C65.2676 19.6948 66.1025 18.5653 67.2124 17.4387C67.9131 16.7274 68.7161 16.0242 69.6219 15.3943C70.1534 15.0247 70.2563 14.2562 69.7985 13.7984Z" fill="#297FFF"/>
<path d="M72.7574 16.7574C71.6716 17.8431 71 19.3431 71 21C71 24.3137 73.6863 27 77 27C78.6569 27 80.1569 26.3284 81.2427 25.2426L79.8285 23.8284C79.1046 24.5523 78.1046 25 77 25C74.7909 25 73 23.2091 73 21C73 19.8954 73.4477 18.8954 74.1716 18.1716L72.7574 16.7574Z" fill="#297FFF"/>
<path d="M77.7046 17.0619C77.4144 17.0103 77.1353 16.8927 76.9269 16.6842L76.5574 16.3147C76.0635 15.8208 76.3016 15 77 15C80.3137 15 83 17.6863 83 21C83 21.6984 82.1792 21.9365 81.6853 21.4427L81.26 21.0173C81.0875 20.8448 80.9891 20.6144 80.9512 20.3734C80.6868 18.6922 79.3749 17.3587 77.7046 17.0619Z" fill="#297FFF"/>
<path d="M86.7566 26.514C86.3381 26.0954 86.3773 25.4074 86.8146 25.0085C86.8183 25.0052 86.8219 25.0019 86.8256 24.9985C87.9324 23.9874 88.7639 22.9747 89.3173 22.2164C89.5397 21.9117 89.7162 21.6493 89.8468 21.4463C89.7129 21.2134 89.527 20.9045 89.2892 20.5424C88.7325 19.6948 87.8976 18.5653 86.7877 17.4387C84.5616 15.1791 81.3024 13 77 13C76.0426 13 75.1369 13.1079 74.2827 13.3006C73.9155 13.3834 73.5274 13.2847 73.2612 13.0186C72.7212 12.4786 72.9286 11.5656 73.6715 11.3885C74.7099 11.1409 75.8194 11 77 11C82.031 11 85.7718 13.5577 88.2124 16.035C89.4358 17.2768 90.3509 18.5157 90.9609 19.4444C91.2664 19.9097 91.497 20.2994 91.6527 20.576C91.7306 20.7144 91.7899 20.8247 91.8306 20.9022C91.8509 20.9409 91.8667 20.9715 91.8777 20.9933L91.8909 21.0193L91.8949 21.0273L91.8967 21.031C91.8967 21.031 91.8971 21.0318 91 21.4737C91.8772 21.9538 91.8768 21.9546 91.8768 21.9546L91.8748 21.9583L91.8706 21.9658L91.857 21.99C91.8456 22.0102 91.8296 22.0382 91.8089 22.0736C91.7676 22.1444 91.7077 22.2447 91.6291 22.3704C91.472 22.6215 91.24 22.9745 90.9328 23.3954C90.3195 24.2358 89.401 25.3547 88.1745 26.4751C88.1423 26.5045 88.1099 26.5339 88.0773 26.5633C87.6974 26.9059 87.1184 26.8757 86.7566 26.514Z" fill="#297FFF"/>
<path d="M91 21.4737L91.8768 21.9546C92.0332 21.6689 92.0407 21.3232 91.8967 21.031L91 21.4737Z" fill="#297FFF"/>
<line x1="65.4142" y1="10" x2="88" y2="32.5858" stroke="#297FFF" stroke-width="2" stroke-linecap="round" stroke-linejoin="round"/>
</svg>
